<?xml version="1.0" ?><!DOCTYPE svg  PUBLIC '-//W3C//DTD SVG 20010904//EN'  'http://www.w3.org/TR/2001/REC-SVG-20010904/DTD/svg10.dtd' [
	<!ENTITY stroke_color "none">
	<!ENTITY fill_color "#e0e0e0">
]><svg height="572.742429pt" preserveAspectRatio="xMidYMid meet" style="" version="1.0" viewBox="0 0 462.000000 572.742429" width="462.000000pt" xmlns="http://www.w3.org/2000/svg">
<metadata style="">
Created by potrace 1.12, written by Peter Selinger 2001-2015
</metadata>
<g fill="&fill_color;" stroke="&stroke_color;" transform="translate(-135.000000,743.765422) scale(0.100000,-0.100000)">
<path d="M3187 7429 c-168 -33 -304 -168 -326 -325 -17 -119 22 -236 106 -320 83 -83 187 -124 318 -124 163 0 287 64 384 198 l44 60 49 -64 c98 -129 225 -194 377 -194 180 0 328 86 399 229 24 50 27 67 27 161 0 101 -1 108 -34 168 -112 205 -376 278 -601 166 -48 -25 -88 -56 -139 -109 -39 -41 -71 -80 -71 -86 0 -6 -17 11 -39 38 -131 166 -306 238 -494 202z m209 -156 c37 -12 67 -35 124 -92 41 -42 81 -88 89 -103 13 -26 12 -31 -24 -84 -49 -74 -120 -144 -170 -169 -30 -15 -61 -20 -125 -20 -73 0 -93 4 -142 28 -195 96 -188 346 12 436 57 26 166 28 236 4z m874 -4 c152 -69 201 -237 104 -363 -62 -82 -197 -124 -310 -97 -65 16 -134 68 -190 144 -75 100 -74 96 -16 174 54 73 117 125 179 148 59 21 179 19 233 -6z" style=""/>
<path d="M3150 7040 l0 -60 140 0 140 0 0 60 0 60 -140 0 -140 0 0 -60z" style=""/>
<path d="M4080 7145 l0 -55 -60 0 -60 0 0 -55 0 -55 60 0 60 0 0 -55 0 -55 60 0 60 0 0 55 0 55 55 0 55 0 0 55 0 55 -55 0 -55 0 0 55 0 55 -60 0 -60 0 0 -55z" style=""/>
<path d="M2590 6446 c0 -30 111 -177 205 -272 184 -185 397 -300 658 -355 144 -31 380 -31 524 0 315 66 588 237 772 481 52 68 101 144 101 156 0 2 -508 4 -1130 4 -943 0 -1130 -2 -1130 -14z" style=""/>
<path d="M1930 6321 c-153 -22 -273 -83 -386 -195 -64 -64 -90 -99 -122 -166 -57 -116 -72 -183 -72 -315 0 -132 15 -198 71 -315 l41 -85 617 -617 617 -616 -611 -614 c-652 -654 -659 -663 -707 -808 -29 -90 -36 -278 -13 -375 53 -231 245 -429 475 -490 72 -19 296 -20 367 -1 66 18 150 56 210 97 26 17 318 301 648 630 l600 599 595 -596 c645 -646 671 -669 822 -718 80 -26 93 -28 239 -24 142 3 160 6 224 32 195 80 335 226 399 418 23 67 26 93 26 211 0 109 -4 148 -21 203 -47 156 -34 140 -702 810 l-619 621 582 579 c320 318 602 606 627 639 109 145 137 239 131 450 -4 133 -7 157 -30 213 -60 145 -164 271 -282 341 -215 128 -493 129 -713 0 -42 -25 -223 -198 -671 -644 l-612 -610 -608 606 c-334 333 -621 616 -639 628 -55 37 -146 79 -208 94 -76 20 -204 28 -275 18z m241 -332 c48 -20 136 -104 772 -738 l717 -716 708 706 c389 388 723 716 743 727 20 12 64 29 100 38 89 23 165 14 256 -31 81 -40 129 -89 171 -175 24 -49 27 -66 27 -155 0 -173 47 -115 -764 -927 l-707 -707 707 -708 c813 -813 764 -754 764 -928 0 -89 -3 -106 -28 -157 -94 -191 -319 -267 -511 -171 -40 19 -207 181 -759 731 l-707 707 -718 -717 c-688 -686 -719 -717 -777 -738 -75 -28 -188 -31 -260 -7 -156 53 -267 221 -252 383 13 137 -20 99 766 887 l716 717 -716 718 c-683 683 -718 720 -740 777 -31 82 -31 198 0 277 40 102 142 194 250 225 64 18 176 10 242 -18z" style=""/>
</g>
</svg>